<svg id="Layer_1" data-name="Layer 1" xmlns="http://www.w3.org/2000/svg" viewBox="0 0 193.64 175.36"><defs><style>.cls-1{fill:#fff;}</style></defs><path class="cls-1" d="M114.29,131.29c.45,2.28.82,4.41,1.33,6.51a1.5,1.5,0,0,0,1.16.73c2.83.06,5.65,0,8.48,0,2.17,0,3,.85,3,3,0,2,0,3.94,0,5.91,0,2.36-.82,3.17-3.2,3.17H75.13c-2.32,0-4.64,0-7,0-2,0-2.85-.89-2.87-2.87,0-2.17,0-4.34,0-6.51A2.44,2.44,0,0,1,68,138.57c2.87,0,5.75,0,8.62,0,1,0,1.31-.26,1.45-1.22.3-2,.77-3.94,1.2-6.07H31.19c-6.08,0-9.5-3.39-9.5-9.42q0-43.92,0-87.82c0-5.94,3.44-9.37,9.4-9.37h131.4c5.95,0,9.39,3.43,9.39,9.38q0,43.91,0,87.82c0,6-3.43,9.41-9.36,9.41q-23.16,0-46.32,0ZM167,111.85V34.32c0-3.6-1.2-4.8-4.81-4.8H31.29c-3.53,0-4.76,1.22-4.76,4.7v77.63Zm-140.51,5v4.57c0,3.94,1.1,5.06,5,5.06H162c.56,0,1.12,0,1.67,0a3.32,3.32,0,0,0,3.2-2.74c.2-2.28,0-4.58,0-6.86Zm56.29,21.59h27.93c-.43-2.19-.8-4.22-1.28-6.23a1.44,1.44,0,0,0-1-.85q-11.65-.08-23.29,0a1.31,1.31,0,0,0-1,.72C83.63,134.16,83.24,136.28,82.82,138.41ZM70.2,145.73h53.17v-2.24H70.2Z"/><path class="cls-1" d="M96.69,124c-.81,0-1.62,0-2.43,0A2.39,2.39,0,0,1,92,121.65a2.36,2.36,0,0,1,2.36-2.45c1.66-.06,3.33-.07,5,0a2.36,2.36,0,0,1,2.32,2.34A2.39,2.39,0,0,1,99.26,124C98.4,124.06,97.54,124,96.69,124Z"/></svg>