<?xml version="1.0" encoding="utf-8"?>
<!-- Generator: Adobe Illustrator 25.2.0, SVG Export Plug-In . SVG Version: 6.00 Build 0)  -->
<svg version="1.1" id="Layer_1" xmlns="http://www.w3.org/2000/svg" xmlns:xlink="http://www.w3.org/1999/xlink" x="0px" y="0px"
	 viewBox="0 0 193.6 175.4" style="enable-background:new 0 0 193.6 175.4;" xml:space="preserve">
<path d="M35.1,133.2V32.4c0.4,0,0.8-0.1,1.2-0.1h118.6c0.4,0,0.8,0,1.3,0v100.9H36.4C36,133.2,35.5,133.2,35.1,133.2z M55.4,36.4
	v92.7H136V36.4H55.4z M39.2,48.4h12v-12h-12V48.4z M152.2,36.4h-12v12h12V36.4z M51.2,64.5v-12h-12v12H51.2z M152.2,64.5v-12h-12v12
	H152.2z M39.2,80.7h11.9v-12H39.2V80.7z M140.2,68.7v12h11.9v-12H140.2z M39.2,84.8v12h11.9v-12H39.2z M152.2,84.8h-12v12h11.9
	L152.2,84.8z M51.2,101h-12v12h12V101z M152.2,101h-12v12h12V101z M51.2,117.1h-12v12h12V117.1z M152.1,129.1v-12h-11.9v12H152.1z"
	/>
<path d="M79.6,82.8c0-5.2,0-10.3,0-15.5c0-2.5,1.4-3.3,3.6-2.1c9,5.1,18.1,10.3,27.1,15.4c2.2,1.2,2.2,2.9,0,4.2l-27.1,15.5
	c-2.2,1.3-3.6,0.4-3.6-2C79.5,93.1,79.6,88,79.6,82.8z M83.7,70.2v25.2l22.1-12.6L83.7,70.2z"/>
</svg>
