<svg id="Layer_1" data-name="Layer 1" xmlns="http://www.w3.org/2000/svg" viewBox="0 0 193.64 175.36"><defs><style>.cls-1{fill:#fff;}</style></defs><path class="cls-1" d="M14.58,135.82c.7,0,1.4.1,2.1.1q32.22,0,64.46,0a2.38,2.38,0,0,1,2.37,1,3.1,3.1,0,0,0,2.25,1c8,.07,15.92.08,23.87,0,.88,0,1.76-.8,2.64-1.23.44-.22.89-.62,1.33-.62q33.28,0,66.58,0a4.75,4.75,0,0,1,.66.13,21.57,21.57,0,0,1-.07,4.1c-.13.66-1,1.29-1.68,1.68a3.92,3.92,0,0,1-1.76.09q-79.65,0-159.3,0c-1.34,0-2.59-.05-3.45-1.27Z"/><path class="cls-1" d="M97.68,132.08H32.23a18.73,18.73,0,0,1-2.59-.13,4.77,4.77,0,0,1-4.05-3.88,12.17,12.17,0,0,1-.18-2.26q0-42,0-84a12.23,12.23,0,0,1,.17-2.26,4.61,4.61,0,0,1,3.53-3.82,9.23,9.23,0,0,1,2.41-.26q66.18,0,132.36,0a9.58,9.58,0,0,1,2.56.28,4.62,4.62,0,0,1,3.43,3.74,11.2,11.2,0,0,1,.17,2.09q0,42.15,0,84.29a11.44,11.44,0,0,1-.19,2.26,4.78,4.78,0,0,1-4,3.78,18.65,18.65,0,0,1-2.59.13Zm0-4.35h65.77c2.21,0,2.22,0,2.22-2.23V42.19c0-2.33,0-2.33-2.3-2.33H32c-2.22,0-2.22,0-2.22,2.25v83.31c0,2.31,0,2.31,2.3,2.31Z"/></svg>