<?xml version="1.0" encoding="utf-8"?>
<!-- Generator: Adobe Illustrator 25.2.0, SVG Export Plug-In . SVG Version: 6.00 Build 0)  -->
<svg version="1.1" id="Layer_1" xmlns="http://www.w3.org/2000/svg" xmlns:xlink="http://www.w3.org/1999/xlink" x="0px" y="0px"
	 viewBox="0 0 193.6 175.4" style="enable-background:new 0 0 193.6 175.4;" xml:space="preserve">
<path d="M135.7,11.1c2.7,0.8,5.2,2,6.3,4.8c0.6,1.6,1,3.2,1,4.9c0.1,16.3,0,32.5,0,48.8c0,25.7,0,51.5,0,77.2c0,6.4-3.5,10-9.9,10
	H70.5c-6.4,0-9.9-3.5-9.9-10v-125c0-6.3,1.5-8.5,7.4-10.7L135.7,11.1z M65.6,30.6v96.9h72.6V30.6H65.6z M65.6,132.6
	c0,0.5-0.1,0.9-0.1,1.3c0,4.5,0,9,0,13.5c0,3,1.6,4.5,4.6,4.5h63.6c3.2,0,4.7-1.5,4.7-4.7c0-4.4,0-8.8,0-13.2v-1.4L65.6,132.6z
	 M138.3,25.6c0-1.6,0-3.1,0-4.6c0-3.7-1.4-5-5.1-5H70.5c-0.5,0-0.9,0-1.4,0c-1.8,0.1-3.3,1.5-3.6,3.3c-0.2,2.1,0,4.1,0,6.3H138.3z"
	/>
<path d="M101.8,149.4c-1.1,0-2.3,0.1-3.4,0c-3.4-0.2-6-2.9-6.2-6.2c-0.3-4.4,1.7-7.6,5.4-8c2.9-0.4,5.8-0.4,8.6,0
	c3.7,0.5,5.6,3.7,5.3,8.1c-0.2,3.3-2.9,5.9-6.2,6.1C104.2,149.4,103,149.4,101.8,149.4z M101.9,144.5L101.9,144.5c1,0,2,0,3,0
	c1,0,1.8-0.7,1.8-1.7c0-0.1,0-0.1,0-0.2c0.1-1.2,0-2.6-1.5-2.8c-2.2-0.2-4.4-0.2-6.6,0c-1.5,0.1-1.6,1.4-1.6,2.7
	c-0.1,1,0.6,1.9,1.6,2c0.1,0,0.2,0,0.3,0C99.9,144.6,100.9,144.5,101.9,144.5z"/>
<path d="M102,18.4c3.8,0,7.6-0.1,11.4,0c0.9,0,1.8,0.4,2.5,1c0.8,0.9,0.7,2.3-0.2,3.1c-0.3,0.2-0.6,0.4-0.9,0.5
	c-0.6,0.2-1.2,0.2-1.8,0.2c-7.3,0-14.7,0-22,0c-0.3,0-0.6,0-0.8,0c-1.7-0.1-2.7-1.1-2.6-2.5s1-2.3,2.7-2.3
	C94.1,18.4,98.1,18.4,102,18.4z"/>
<path d="M129.9,18.4c2.4,0,3.5,0.7,3.6,2.3s-1.2,2.5-3.6,2.5c-0.5,0-1,0-1.6-0.1c-1.3-0.2-2.2-1.3-2.1-2.6c0.1-1.1,1.1-2,2.2-2.1
	C128.9,18.4,129.4,18.4,129.9,18.4z"/>
</svg>
