<?xml version="1.0" encoding="utf-8"?>
<!-- Generator: Adobe Illustrator 25.2.0, SVG Export Plug-In . SVG Version: 6.00 Build 0)  -->
<svg version="1.1" id="Layer_1" xmlns="http://www.w3.org/2000/svg" xmlns:xlink="http://www.w3.org/1999/xlink" x="0px" y="0px"
	 viewBox="0 0 193.6 175.4" style="enable-background:new 0 0 193.6 175.4;" xml:space="preserve">
<path d="M42.8,132.5c1.3-3.2,2.7-6.4,4-9.7c7.5-18.7,14.9-37.4,22.4-56.2c0.5-1.3,1.5-2.4,2.8-3c12-6,24-12,36-18l1.1-0.6l-0.8-0.9
	c-2.1-2.1-2.1-3.8,0-5.8l9.2-9.1c1.5-1.5,3.1-3.1,4.6-4.6c1.2-1.4,3.2-1.6,4.7-0.5c0.2,0.1,0.3,0.3,0.5,0.5
	c9.2,9.2,18.4,18.5,27.6,27.7c1.7,1.7,1.6,3.5-0.1,5.2c-4.6,4.6-9.2,9.2-13.8,13.8c-1.8,1.8-3.6,1.8-5.5,0c-0.3-0.4-0.6-0.8-0.9-1.2
	c-0.3,0.6-0.5,1-0.7,1.3c-6,11.9-11.9,23.8-17.9,35.7c-0.7,1.4-1.9,2.6-3.4,3.1C91,119,69.4,127.6,47.9,136.3
	c-0.3,0.1-0.6,0.3-0.9,0.4h-1.5c-1.2-0.4-2.2-1.3-2.7-2.4V132.5z M55.3,119.4l0.6-0.5c9-9,18-18,27.1-27c0.4-0.4,0.5-1,0.3-1.4
	c-1.9-5.1,0.7-10.8,5.8-12.8c1.1-0.4,2.3-0.6,3.5-0.6c4-0.1,7.6,2.3,9.1,6c1.7,3.6,0.9,8-2,10.7c-2.6,2.9-6.8,3.9-10.4,2.5
	c-0.6-0.3-1.4-0.1-1.8,0.4c-8.8,8.9-17.6,17.8-26.4,26.6c-0.2,0.2-0.4,0.5-0.8,0.9c0.5-0.2,0.7-0.2,0.9-0.3
	c16.1-6.4,32.2-12.9,48.3-19.3c0.5-0.2,0.9-0.7,1.2-1.2c4.3-8.6,8.6-17.1,12.8-25.7l6.1-12.2L114,50.1l-0.9,0.4
	C100.8,56.7,88.5,62.8,76.3,69c-0.7,0.3-1.2,0.9-1.4,1.6c-6.3,15.9-12.7,31.8-19,47.7C55.7,118.5,55.5,118.8,55.3,119.4z M147.8,55
	l-23.2-23.2l-9.5,9.5l23.2,23.2L147.8,55z M92.6,90.3c1.8,0,3.3-1.5,3.3-3.3s-1.5-3.3-3.3-3.3s-3.3,1.5-3.3,3.3c0,0,0,0,0,0
	C89.3,88.8,90.8,90.2,92.6,90.3z"/>
</svg>
