<?xml version="1.0" encoding="utf-8"?>
<!-- Generator: Adobe Illustrator 25.2.0, SVG Export Plug-In . SVG Version: 6.00 Build 0)  -->
<svg version="1.1" id="Layer_1" xmlns="http://www.w3.org/2000/svg" xmlns:xlink="http://www.w3.org/1999/xlink" x="0px" y="0px"
	 viewBox="0 0 193.6 175.4" style="enable-background:new 0 0 193.6 175.4;" xml:space="preserve">
<path d="M173.4,131.6c-1,2.5-1.7,5.2-3.1,7.4c-3.3,5.1-8.3,7.3-14.3,7.3c-10.4-0.1-20.9,0-31.3,0c-27.3,0-54.7,0-82,0
	c-6.7,0-11.9-2.7-15.4-8.3c-1.6-2.7-2.4-5.7-2.3-8.9c0-14.2,0-28.4,0-42.6c0-9,0-18,0-27c0-7.9,5.4-14.7,13.1-16.4
	c1.5-0.3,3-0.4,4.5-0.4c6.9,0,13.7,0,20.6,0h1.4c0.4-2,1-3.9,1.7-5.8c2.4-5.1,6.7-7.5,12.2-7.5c13.8,0,27.6-0.1,41.5,0
	c6.7,0,11.3,3.7,13,9.9c0.2,1.1,0.4,2.2,0.5,3.3H156c9,0,15.4,5.3,17.2,14.1c0.1,0.1,0.1,0.2,0.2,0.3L173.4,131.6z M99.2,138.8
	c18.7,0,37.5,0,56.2,0c1.3,0,2.5-0.1,3.7-0.4c4.5-1.3,6.9-4.7,6.9-10c0.1-22.8,0.1-45.6,0-68.4c0-1.6-0.3-3.2-1-4.6
	c-1.7-3.7-4.8-5.2-8.8-5.2h-25.8c-3.2,0-4.6-1.5-4.6-4.7v-2.2c0-4.6-1.9-6.5-6.5-6.5H79.2c-0.5,0-1.1,0-1.6,0
	c-2.6,0.1-4.7,2.1-4.8,4.7c-0.1,1.3-0.1,2.7-0.1,4.1c0,3.1-1.5,4.6-4.6,4.6c-8.7,0-17.3,0-26,0c-5.7,0-9.6,3.8-9.6,9.4
	c0,23.3,0,46.6,0,69.9c0,1.4,0.3,2.9,0.9,4.2c1.8,3.8,5,5.2,9.1,5.2L99.2,138.8z"/>
<path d="M133.9,94.6c-0.1,19.2-15.7,34.7-34.8,34.6c-19.2-0.1-34.7-15.7-34.6-34.8l0,0c-0.1-19,15.3-34.5,34.3-34.6
	c0.2,0,0.4,0,0.6,0C118.9,59.9,133.7,75.4,133.9,94.6z M126.2,94.8c0.1-15-12-27.1-26.9-27.2s-27.1,12-27.2,26.9
	c-0.1,15,12,27.1,26.9,27.2c0,0,0.1,0,0.1,0C114.1,121.8,126.2,109.7,126.2,94.8C126.2,94.8,126.2,94.8,126.2,94.8z"/>
<path d="M149.4,73.4c-3.8,0-6.9-3.1-6.8-6.9s3.1-6.9,6.9-6.8c3.8,0,6.8,3.1,6.8,6.8C156.3,70.3,153.2,73.4,149.4,73.4
	C149.4,73.4,149.4,73.4,149.4,73.4z"/>
</svg>
