<svg id="Layer_1" data-name="Layer 1" xmlns="http://www.w3.org/2000/svg" viewBox="0 0 193.64 175.36"><defs><style>.cls-1{fill:#fff;}</style></defs><path class="cls-1" d="M173.4,131.62c-1,2.48-1.68,5.18-3.12,7.38-3.31,5.06-8.25,7.31-14.31,7.28-10.43-.05-20.87,0-31.31,0q-41,0-82,0c-6.68,0-11.85-2.7-15.42-8.34a16.13,16.13,0,0,1-2.29-8.85q0-21.32,0-42.62c0-9,0-18,0-27A16.81,16.81,0,0,1,38.05,43.07a22.17,22.17,0,0,1,4.46-.41c6.86,0,13.72,0,20.58,0h1.43a36.32,36.32,0,0,1,1.67-5.76c2.43-5.07,6.69-7.45,12.24-7.47,13.82,0,27.64-.08,41.46,0,6.65,0,11.33,3.72,13,9.87a32.63,32.63,0,0,1,.53,3.34H156c9,0,15.39,5.28,17.23,14.1a1.35,1.35,0,0,0,.22.35ZM99.17,138.8q28.11,0,56.24,0a14,14,0,0,0,3.72-.39c4.51-1.27,6.92-4.74,6.93-10q.08-34.22,0-68.42a11.23,11.23,0,0,0-1-4.62c-1.7-3.65-4.82-5.23-8.78-5.23H130.48c-3.2,0-4.63-1.46-4.64-4.7V43.27c0-4.6-1.92-6.51-6.52-6.51H79.17c-.54,0-1.07,0-1.6,0a5.08,5.08,0,0,0-4.84,4.71c-.13,1.35-.08,2.7-.1,4.06,0,3.12-1.51,4.57-4.64,4.57-8.65,0-17.3,0-25.95,0-5.67,0-9.59,3.8-9.6,9.39q-.06,34.93,0,69.87a10,10,0,0,0,.93,4.18c1.79,3.77,5,5.22,9.1,5.22Z"/><path class="cls-1" d="M133.89,94.59a34.71,34.71,0,1,1-69.42-.25A34.42,34.42,0,0,1,99.35,59.79C118.89,59.93,133.73,75.43,133.89,94.59Zm-7.66.19a27.07,27.07,0,1,0-27.08,26.94A27,27,0,0,0,126.23,94.78Z"/><path class="cls-1" d="M149.4,73.39a6.87,6.87,0,1,1,6.9-6.9A6.89,6.89,0,0,1,149.4,73.39Z"/></svg>