<?xml version="1.0" encoding="utf-8"?>
<!-- Generator: Adobe Illustrator 25.2.0, SVG Export Plug-In . SVG Version: 6.00 Build 0)  -->
<svg version="1.1" id="Layer_1" xmlns="http://www.w3.org/2000/svg" xmlns:xlink="http://www.w3.org/1999/xlink" x="0px" y="0px"
	 viewBox="0 0 193.6 175.4" style="enable-background:new 0 0 193.6 175.4;" xml:space="preserve">
<path d="M114.3,131.3c0.4,2.3,0.8,4.4,1.3,6.5c0.2,0.4,0.7,0.7,1.2,0.7c2.8,0.1,5.7,0,8.5,0c2.2,0,3,0.9,3,3c0,2,0,3.9,0,5.9
	c0,2.4-0.8,3.2-3.2,3.2H75.1c-2.3,0-4.6,0-7,0c-2,0-2.8-0.9-2.9-2.9c0-2.2,0-4.3,0-6.5c-0.1-1.3,0.8-2.5,2.2-2.7c0.2,0,0.4,0,0.6,0
	c2.9,0,5.8,0,8.6,0c1,0,1.3-0.3,1.4-1.2c0.3-2,0.8-3.9,1.2-6.1H31.2c-6.1,0-9.5-3.4-9.5-9.4c0-29.3,0-58.6,0-87.8
	c0-5.9,3.4-9.4,9.4-9.4h131.4c5.9,0,9.4,3.4,9.4,9.4c0,29.3,0,58.5,0,87.8c0,6-3.4,9.4-9.4,9.4c-15.4,0-30.9,0-46.3,0L114.3,131.3z
	 M167,111.8V34.3c0-3.6-1.2-4.8-4.8-4.8H31.3c-3.5,0-4.8,1.2-4.8,4.7v77.6H167z M26.5,116.8v4.6c0,3.9,1.1,5.1,5,5.1H162
	c0.6,0,1.1,0,1.7,0c1.6,0,2.9-1.2,3.2-2.7c0.2-2.3,0-4.6,0-6.9L26.5,116.8z M82.8,138.4h27.9c-0.4-2.2-0.8-4.2-1.3-6.2
	c-0.2-0.4-0.5-0.7-1-0.9c-7.8-0.1-15.5-0.1-23.3,0c-0.4,0.1-0.8,0.3-1,0.7C83.6,134.2,83.2,136.3,82.8,138.4L82.8,138.4z
	 M70.2,145.7h53.2v-2.2H70.2V145.7z"/>
<path d="M96.7,124c-0.8,0-1.6,0-2.4,0c-1.3-0.1-2.2-1.1-2.3-2.3c0-1.3,1-2.4,2.3-2.4c0,0,0.1,0,0.1,0c1.7-0.1,3.3-0.1,5,0
	c1.3,0,2.3,1.1,2.3,2.3c0,1.3-1,2.4-2.3,2.5c0,0-0.1,0-0.1,0C98.4,124.1,97.5,124,96.7,124z"/>
</svg>
