<svg id="Layer_1" data-name="Layer 1" xmlns="http://www.w3.org/2000/svg" viewBox="0 0 193.64 175.36"><defs><style>.cls-1{fill:#fff;}</style></defs><path class="cls-1" d="M135.74,11.09c2.74.78,5.21,2,6.34,4.78a13.22,13.22,0,0,1,1,4.93c.07,16.25,0,32.51,0,48.76q0,38.6,0,77.2c0,6.43-3.51,10-9.9,10H70.54c-6.4,0-9.91-3.52-9.91-10v-125c0-6.3,1.54-8.52,7.41-10.7ZM65.58,30.56v96.92H138.2V30.56Zm0,102c0,.48-.07.89-.07,1.31,0,4.5,0,9,0,13.51,0,3,1.55,4.51,4.59,4.51h63.57c3.2,0,4.66-1.5,4.66-4.73,0-4.41,0-8.82,0-13.22v-1.38Zm72.75-107c0-1.58,0-3.09,0-4.59,0-3.67-1.37-5-5.07-5H70.54a13.4,13.4,0,0,0-1.42,0,3.79,3.79,0,0,0-3.56,3.31c-.15,2.06,0,4.14,0,6.28Z"/><path class="cls-1" d="M101.84,149.36c-1.14,0-2.28.07-3.41,0a6.57,6.57,0,0,1-6.21-6.22c-.26-4.41,1.7-7.59,5.42-8a35.43,35.43,0,0,1,8.61,0c3.68.46,5.61,3.71,5.31,8.11a6.58,6.58,0,0,1-6.17,6.12C104.21,149.43,103,149.36,101.84,149.36Zm.08-4.82h0c1,0,2,0,3,0a1.79,1.79,0,0,0,1.84-1.92c.06-1.23,0-2.62-1.49-2.76a39.55,39.55,0,0,0-6.62,0c-1.53.12-1.63,1.45-1.57,2.71a1.82,1.82,0,0,0,1.9,2C99.94,144.57,100.93,144.54,101.92,144.54Z"/><path class="cls-1" d="M102,18.39c3.8,0,7.59-.06,11.38,0a3.87,3.87,0,0,1,2.48,1A2.23,2.23,0,0,1,114.74,23a6.59,6.59,0,0,1-1.83.2q-11,0-22,0c-.28,0-.57,0-.85,0-1.69-.14-2.7-1.12-2.64-2.55s1-2.27,2.71-2.29C94.07,18.37,98.05,18.39,102,18.39Z"/><path class="cls-1" d="M129.88,18.43c2.36,0,3.5.71,3.55,2.3s-1.18,2.52-3.55,2.51a8.85,8.85,0,0,1-1.55-.09,2.37,2.37,0,0,1,.14-4.72C128.93,18.39,129.41,18.43,129.88,18.43Z"/></svg>