<svg id="Layer_1" data-name="Layer 1" xmlns="http://www.w3.org/2000/svg" viewBox="0 0 193.64 175.36"><defs><style>.cls-1{fill:#fff;}</style></defs><path class="cls-1" d="M89.26,145.77c-1.89-.77-3.43-1.86-3.91-4a5,5,0,0,1,3.59-5.95,6.62,6.62,0,0,1,1.65-.22c6.1,0,12.21,0,18.31,0a5.07,5.07,0,0,1,2.27,9.74l-.89.44Zm10.56-4.22h9c.69,0,1.36-.14,1.38-1s-.62-1-1.34-1c-.21,0-.43,0-.64,0H91.27a2.6,2.6,0,0,0-1,0c-.37.19-.94.61-.89.83a1.79,1.79,0,0,0,.86,1,2.46,2.46,0,0,0,1.13.08Z"/><path class="cls-1" d="M99.87,121H85.26c-2.37,0-2.84-.61-3-2.94a61.37,61.37,0,0,0-.84-8.13,17.35,17.35,0,0,0-5.24-9.32,33.66,33.66,0,0,1,3.36-50.87c18.64-14,45.57-5.5,52.42,16.81,3.85,12.54,1.09,24-8,33.34-4.94,5.07-6.45,10.92-6.61,17.54,0,.42,0,.85,0,1.28-.14,1.63-.8,2.27-2.46,2.28-4.44,0-8.88,0-13.33,0Zm-13.32-4.16h1.38c7.91,0,15.81,0,23.72,0,1.34,0,1.7-.38,1.76-1.69.21-4.66,1.1-9.21,3.65-13.18a59.05,59.05,0,0,1,4.77-5.66c7.72-9.2,9.58-19.5,5.45-30.76-4.85-13.26-20-21.21-33.72-18.13A29.7,29.7,0,0,0,70.22,78.47a28.45,28.45,0,0,0,8.74,19A22,22,0,0,1,85.35,109C85.88,111.51,86.14,114.07,86.55,116.79Z"/><path class="cls-1" d="M99.58,133.46c-4.49,0-9,0-13.46,0a5,5,0,0,1-1.44-9.8,7.59,7.59,0,0,1,2.27-.31q12.83,0,25.64,0c3.15,0,5.38,1.81,5.64,4.46a5.09,5.09,0,0,1-5.32,5.67c-4.45.05-8.89,0-13.33,0Zm.1-6.17c-4.35,0-8.7,0-13.05,0a1.62,1.62,0,0,0-1.24.88c-.19.8.5,1,1.21,1.09h25.6a2.62,2.62,0,0,0,1.13-.09,1.32,1.32,0,0,0,.7-.89,1.34,1.34,0,0,0-.67-.93,2.46,2.46,0,0,0-1.13-.09Z"/><path class="cls-1" d="M77.26,38c-.46.51-.87,1.36-1.49,1.56s-1.46-.21-2.19-.4c-.17,0-.29-.31-.4-.49Q69.55,33,65.94,27.38c-.54-.86-.8-1.84,0-2.59a3,3,0,0,1,2-.72,2.31,2.31,0,0,1,1.48,1.05c2.43,3.71,4.81,7.45,7.18,11.2A10.94,10.94,0,0,1,77.26,38Z"/><path class="cls-1" d="M101.8,23.73c0,2.14,0,4.27,0,6.41,0,1.61-.82,2.57-2.08,2.53s-2-1-2-2.51c0-4.36,0-8.71,0-13.07,0-1.58.84-2.58,2.07-2.54s2,1,2,2.52C101.81,19.29,101.8,21.51,101.8,23.73Z"/><path class="cls-1" d="M154.4,48.34c-.22.28-.55,1-1.14,1.38-4,2.25-8.07,4.42-12.14,6.58a2,2,0,0,1-2.79-.7,2.07,2.07,0,0,1,.89-2.86c4-2.22,8.08-4.42,12.16-6.55C152.91,45.4,154.41,46.32,154.4,48.34Z"/><path class="cls-1" d="M46.85,45.7c.85.33,1.39.47,1.86.72,3.72,2,7.42,4,11.13,6l.22.12a2.23,2.23,0,0,1,1.11,3c-.54,1-1.73,1.29-3,.6-2.52-1.34-5-2.72-7.52-4.09-1.54-.84-3.07-1.66-4.58-2.54a1.63,1.63,0,0,1-.78-2.2A7.31,7.31,0,0,1,46.85,45.7Z"/><path class="cls-1" d="M125.62,40.32a2.09,2.09,0,0,1-2.34-2.52,2.85,2.85,0,0,1,.38-.81q3.75-5.66,7.52-11.29a2.44,2.44,0,0,1,.32-.4,1.88,1.88,0,0,1,2.65-.26,1.76,1.76,0,0,1,.5,2.49c-.67,1.14-1.43,2.22-2.16,3.32-1.82,2.74-3.62,5.49-5.49,8.19A7.42,7.42,0,0,1,125.62,40.32Z"/><path class="cls-1" d="M125.92,76.38c0,.38,0,.77,0,1.15a2,2,0,0,1-1.84,2.09,2,2,0,0,1-2.15-1.76c-.17-1.09-.16-2.21-.32-3.3a22,22,0,0,0-21.07-19c-.21,0-.43,0-.64,0a2.13,2.13,0,0,1-2.16-2.08,2,2,0,0,1,2.26-2,49,49,0,0,1,6.94,1C117.52,55.15,125.67,65.49,125.92,76.38Z"/></svg>