<svg id="Layer_1" data-name="Layer 1" xmlns="http://www.w3.org/2000/svg" viewBox="0 0 193.64 175.36"><defs><style>.cls-1{fill:#fff;}</style></defs><path class="cls-1" d="M135.12,21.74a15.35,15.35,0,0,1,10.71,4.18c3.33,3.14,6.61,6.35,9.73,9.69a15.9,15.9,0,0,1,0,21.75c-.39.42-.78.82-1.18,1.22Q122,91,89.62,123.31a8.29,8.29,0,0,1-3,1.87Q67.52,131.65,48.39,138a6.5,6.5,0,0,1-2.36.45c-2.11-.12-3.35-2.18-2.64-4.37,1.42-4.43,2.91-8.83,4.38-13.25,2.91-8.75,5.81-17.51,8.76-26.25a5.89,5.89,0,0,1,1.36-2.23q32.73-32.79,65.49-65.54A16.28,16.28,0,0,1,135.12,21.74ZM86.71,117l55.65-55.65-22-22L64.71,95Zm60.71-60.4c1.31-1.41,2.75-2.78,4-4.31a9.21,9.21,0,0,0-.08-11.66,135.7,135.7,0,0,0-10.47-10.44,8.26,8.26,0,0,0-9.87-1c-2.28,1.26-4.16,3.25-6.15,4.86Zm-96,73.56,29-9.66L61.08,101.2C57.91,110.69,54.7,120.3,51.39,130.18Z"/></svg>