<svg id="Layer_1" data-name="Layer 1" xmlns="http://www.w3.org/2000/svg" viewBox="0 0 193.64 175.36"><defs><style>.cls-1{fill:#fff;}</style></defs><path class="cls-1" d="M42.8,132.51c1.32-3.22,2.67-6.43,4-9.67Q58,94.78,69.22,66.68a5.47,5.47,0,0,1,2.83-3.05q18-9,36-18l1.12-.58-.83-.87c-2.06-2.06-2.07-3.75,0-5.78l9.15-9.15c1.54-1.54,3.07-3.09,4.62-4.61a3.32,3.32,0,0,1,5.15,0Q141,38.5,154.85,52.36c1.67,1.68,1.64,3.51-.07,5.22q-6.9,6.95-13.83,13.85c-1.83,1.82-3.62,1.81-5.47,0a12.7,12.7,0,0,1-.91-1.2c-.34.64-.52,1-.7,1.34Q124.93,89.4,116,107.28a6,6,0,0,1-3.37,3.11q-32.4,12.92-64.77,25.89c-.3.12-.58.29-.87.44H45.46a4.48,4.48,0,0,1-2.66-2.44Zm12.55-13.12.6-.52Q69.48,105.34,83,91.82a1.14,1.14,0,0,0,.25-1.44A9.91,9.91,0,0,1,92.58,77a9.43,9.43,0,0,1,9.1,6,9.31,9.31,0,0,1-2,10.73,9.43,9.43,0,0,1-10.44,2.48,1.46,1.46,0,0,0-1.79.43Q74.24,110,61,123.25c-.23.23-.44.48-.82.91.46-.16.67-.21.87-.29q24.15-9.66,48.27-19.34a2.62,2.62,0,0,0,1.19-1.16Q117,90.54,123.35,77.7l6.08-12.15L114,50.11l-.92.42Q94.67,59.74,76.25,69a2.71,2.71,0,0,0-1.41,1.56q-9.5,23.83-19.05,47.66C55.66,118.5,55.55,118.83,55.35,119.39ZM147.79,55,124.54,31.76,115,41.28l23.21,23.2ZM92.6,90.26A3.31,3.31,0,1,0,89.27,87,3.36,3.36,0,0,0,92.6,90.26Z"/></svg>