<svg id="Layer_1" data-name="Layer 1" xmlns="http://www.w3.org/2000/svg" viewBox="0 0 193.64 175.36"><defs><style>.cls-1{fill:#fff;}</style></defs><path class="cls-1" d="M35.11,133.19V32.39c.39,0,.79-.06,1.18-.06H154.92c.42,0,.83,0,1.26.05V133.25H36.41C36,133.24,35.54,133.21,35.11,133.19ZM55.37,36.43v92.7H136V36.43Zm-16.16,12h12v-12h-12Zm113-12h-12V48.38h12Zm-101,28.1v-12H39.23v12Zm101,0v-12H140.21v12ZM39.21,80.67H51.15v-12H39.21Zm101-12v12h11.95v-12Zm-101,16.18v12H51.15v-12Zm113,0H140.22v12h11.94Zm-101,16.15h-12v12h12Zm101,0h-12v12h12Zm-101,16.13h-12v11.95h12Zm100.94,12v-12H140.22v12Z"/><path class="cls-1" d="M79.55,82.79c0-5.16,0-10.32,0-15.48,0-2.5,1.44-3.32,3.61-2.08q13.55,7.71,27.07,15.45c2.16,1.24,2.17,2.95,0,4.19L83.17,100.33c-2.19,1.26-3.61.45-3.62-2C79.54,93.12,79.55,88,79.55,82.79Zm4.12-12.62V95.41l22.07-12.62Z"/></svg>