<?xml version="1.0" encoding="utf-8"?>
<!-- Generator: Adobe Illustrator 25.2.0, SVG Export Plug-In . SVG Version: 6.00 Build 0)  -->
<svg version="1.1" id="Layer_1" xmlns="http://www.w3.org/2000/svg" xmlns:xlink="http://www.w3.org/1999/xlink" x="0px" y="0px"
	 viewBox="0 0 193.6 175.4" style="enable-background:new 0 0 193.6 175.4;" xml:space="preserve">
<path d="M14.6,135.8c0.7,0,1.4,0.1,2.1,0.1c21.5,0,43,0,64.5,0c0.9-0.2,1.8,0.2,2.4,1c0.6,0.6,1.4,1,2.3,1c8,0.1,15.9,0.1,23.9,0
	c0.9,0,1.8-0.8,2.6-1.2c0.4-0.2,0.9-0.6,1.3-0.6c22.2,0,44.4,0,66.6,0c0.2,0,0.4,0.1,0.7,0.1c0.1,1.4,0.1,2.7-0.1,4.1
	c-0.1,0.7-1,1.3-1.7,1.7c-0.6,0.2-1.2,0.2-1.8,0.1c-53.1,0-106.2,0-159.3,0c-1.3,0-2.6-0.1-3.4-1.3L14.6,135.8z"/>
<path d="M97.7,132.1H32.2c-0.9,0-1.7,0-2.6-0.1c-2-0.3-3.7-1.8-4-3.9c-0.1-0.7-0.2-1.5-0.2-2.3c0-28,0-56,0-84c0-0.8,0-1.5,0.2-2.3
	c0.3-1.9,1.7-3.4,3.5-3.8c0.8-0.2,1.6-0.3,2.4-0.3c44.1,0,88.2,0,132.4,0c0.9,0,1.7,0.1,2.6,0.3c1.8,0.5,3.1,1.9,3.4,3.7
	c0.1,0.7,0.2,1.4,0.2,2.1c0,28.1,0,56.2,0,84.3c0,0.8-0.1,1.5-0.2,2.3c-0.4,2-2,3.5-4,3.8c-0.9,0.1-1.7,0.1-2.6,0.1L97.7,132.1z
	 M97.7,127.7h65.8c2.2,0,2.2,0,2.2-2.2V42.2c0-2.3,0-2.3-2.3-2.3H32c-2.2,0-2.2,0-2.2,2.3v83.3c0,2.3,0,2.3,2.3,2.3L97.7,127.7z"/>
</svg>
