<svg xmlns="http://www.w3.org/2000/svg" viewBox="0 0 193.64 175.36"><defs><style>.cls-1{fill:#231f20;}.cls-2{fill:none;stroke:#fff;stroke-miterlimit:10;}.cls-3{fill:#fff;}</style></defs><g id="Layer_19" data-name="Layer 19"><rect class="cls-1" x="28.16" y="25.08" width="135.06" height="116.84"/><rect class="cls-2" x="28.16" y="25.08" width="135.06" height="116.84"/><rect class="cls-2" x="28.16" y="25.08" width="29.31" height="116.84"/><rect class="cls-2" x="133.91" y="25.08" width="29.31" height="116.84"/><rect class="cls-3" x="36.3" y="36.45" width="14.2" height="5.73"/><rect class="cls-3" x="36.3" y="51.39" width="14.2" height="5.73"/><rect class="cls-3" x="36.3" y="66.32" width="14.2" height="5.73"/><rect class="cls-3" x="36.3" y="81.25" width="14.2" height="5.73"/><rect class="cls-3" x="36.3" y="95.55" width="14.2" height="5.73"/><rect class="cls-3" x="36.3" y="110.53" width="14.2" height="5.73"/><rect class="cls-3" x="36.3" y="124.57" width="14.2" height="5.73"/><rect class="cls-3" x="142.48" y="36.45" width="14.2" height="5.73"/><rect class="cls-3" x="142.48" y="51.39" width="14.2" height="5.73"/><rect class="cls-3" x="142.48" y="66.32" width="14.2" height="5.73"/><rect class="cls-3" x="142.48" y="81.25" width="14.2" height="5.73"/><rect class="cls-3" x="142.48" y="95.55" width="14.2" height="5.73"/><rect class="cls-3" x="142.48" y="110.53" width="14.2" height="5.73"/><rect class="cls-3" x="142.48" y="124.57" width="14.2" height="5.73"/><polygon class="cls-2" points="116.58 85.48 78.98 63.77 78.98 107.19 116.58 85.48"/></g></svg>