<svg xmlns="http://www.w3.org/2000/svg" viewBox="0 0 193.64 175.36"><defs><style>.cls-1{fill:#231f20;stroke:#fff;stroke-miterlimit:10;}</style></defs><g id="Layer_20" data-name="Layer 20"><path class="cls-1" d="M135,70.32c.27,11.73-4.32,20.77-12.54,28.36-4,3.63-8,7.42-8.12,13.55,0,2-1.48,2.85-3.36,2.65a82.52,82.52,0,0,1-15.26-3.5,1.3,1.3,0,0,1-.92-1.8A1.72,1.72,0,0,1,97,108.31c3.41.84,6.84,1.65,10.21,2.62,2.18.62,3.61.89,4.18-2.16,1-5.3,4.74-9,8.6-12.42,9.61-8.41,13.05-19.06,11.29-31.35-1.91-13.38-12.3-24.1-26-27.45C90.14,33.83,74.29,42.37,67.8,54c-6.94,12.44-5.53,30.13,5.66,40.49,2.3,2.13,4.38,4.49,6.46,6.84,2.81,3.16,4.6,6.78,4.23,11.14-.17,2,.83,2.83,2.47,3.2,3.89.89,7.78,1.83,11.71,2.5,4.14.71,8.09,2.16,12.27,2.67,1,.13,2.76.52,2.37,2.27-.35,1.55-1.82,1-2.88,1-4.51-.22-8.71-2-13.14-2.68s-8.67-2.09-13-3.06c-2.14-.47-3.34-1.71-3.09-3.77.9-7.26-3.48-11.87-8.18-16.09-10.18-9.12-14-20.57-12.09-33.74C62.8,49.19,75,37.66,89.77,34.1c15.75-3.81,34.24,5.1,41,18.77A36.13,36.13,0,0,1,135,70.32Z"/><path class="cls-1" d="M110.53,133.59c-2.51-.3-4.83-1-7.24-1.57-6.31-1.39-12.59-2.91-18.87-4.4-1.12-.26-2.6-.6-1.94-2.12.51-1.16,1.75-1.33,3.21-1,6.09,1.49,12.23,2.74,18.34,4.15,2.4.55,4.77,1.27,7.14,1.93.94.26,2,.55,1.69,1.84C112.57,133.57,112,133.59,110.53,133.59Z"/><path class="cls-1" d="M87,134.23c4.08.92,8.34,1.86,12.58,2.83,2.5.57,5,1.23,7.47,1.77,1.29.28,2.66.65,2.29,2.23s-1.91,1.49-3.11,1.14c-3.38-1-6.83-1.62-10.28-2.31-3.15-.64-6.26-1.48-9.39-2.23-1.15-.28-2.31-.65-2.17-2.16S85.83,134.34,87,134.23Z"/></g></svg>