<svg id="Layer_1" data-name="Layer 1" xmlns="http://www.w3.org/2000/svg" viewBox="0 0 193.64 175.36"><defs><style>.cls-1{fill:#fff;stroke:#231f20;stroke-miterlimit:10;stroke-width:3px;}</style></defs><path class="cls-1" d="M141,65.76c.34,14.71-5.42,26-15.73,35.54-4.94,4.56-10.06,9.3-10.17,17,0,2.45-1.86,3.59-4.22,3.33a103.87,103.87,0,0,1-19.12-4.38A1.64,1.64,0,0,1,90.61,115a2.19,2.19,0,0,1,2.79-1.6c4.28,1.07,8.57,2.08,12.8,3.29,2.73.78,4.52,1.12,5.24-2.7,1.25-6.65,5.94-11.35,10.77-15.57,12-10.54,16.36-23.89,14.16-39.29-2.4-16.77-15.43-30.21-32.56-34.41-19-4.66-38.88,6-47,20.65C48.1,60.93,49.86,83.1,63.88,96.08c2.88,2.66,5.49,5.63,8.1,8.57,3.52,4,5.77,8.5,5.3,14-.21,2.46,1,3.55,3.1,4,4.88,1.11,9.75,2.29,14.68,3.13,5.18.89,10.14,2.71,15.38,3.35,1.26.16,3.46.65,3,2.84-.44,1.94-2.27,1.3-3.61,1.23-5.65-.28-10.91-2.47-16.46-3.36S82.45,127.19,77,126c-2.68-.59-4.18-2.15-3.86-4.73,1.12-9.1-4.37-14.88-10.27-20.16C50.11,89.67,45.34,75.31,47.71,58.81c2.81-19.54,18.14-34,36.62-38.45,19.74-4.77,42.91,6.4,51.43,23.53C139.29,51,141.29,58.34,141,65.76Z"/><path class="cls-1" d="M110.35,145.06a92.59,92.59,0,0,1-9.08-2c-7.91-1.74-15.78-3.65-23.65-5.51-1.41-.33-3.26-.75-2.42-2.66.63-1.45,2.19-1.67,4-1.22,7.63,1.86,15.33,3.43,23,5.19,3,.69,6,1.59,9,2.42,1.17.33,2.54.69,2.12,2.31C112.91,145,112.24,145.06,110.35,145.06Z"/><path class="cls-1" d="M80.85,145.86C86,147,91.3,148.19,96.63,149.41c3.12.71,6.22,1.53,9.36,2.22,1.61.35,3.32.81,2.86,2.79s-2.39,1.87-3.89,1.43c-4.24-1.26-8.57-2-12.88-2.9-4-.79-7.85-1.84-11.77-2.79-1.45-.35-2.9-.81-2.72-2.7S79.39,146,80.85,145.86Z"/></svg>