<svg id="Icons_Social_Instagram_Colour" data-name="Icons / Social / Instagram / Colour" xmlns="http://www.w3.org/2000/svg" width="32" height="32" viewBox="0 0 32 32">
  <g id="Icons_Social_Instagram_Dark" data-name="Icons / Social / Instagram / Dark">
    <g id="Oval" fill="#f4a288" stroke="#231f20" stroke-miterlimit="10" stroke-width="1.5">
      <circle cx="16" cy="16" r="16" stroke="none"/>
      <circle cx="16" cy="16" r="15.25" fill="none"/>
    </g>
    <g id="Group_8" data-name="Group 8" transform="translate(-995 -537)">
      <path id="Path_55" data-name="Path 55" d="M8,3H18a5,5,0,0,1,5,5V18a5,5,0,0,1-5,5H8a5,5,0,0,1-5-5V8A5,5,0,0,1,8,3Z" transform="translate(998 540)" fill="none" stroke="#231f20" stroke-linecap="round" stroke-linejoin="round" stroke-width="1.5"/>
      <path id="Path_56" data-name="Path 56" d="M21.016,15.775a4.5,4.5,0,1,1-3.791-3.791,4.5,4.5,0,0,1,3.791,3.791Z" transform="translate(994.474 536.526)" fill="none" stroke="#231f20" stroke-linecap="round" stroke-linejoin="round" stroke-width="1.5"/>
      <path id="Path_57" data-name="Path 57" d="M26.25,9.75h0" transform="translate(990.25 537.75)" fill="none" stroke="#231f20" stroke-linecap="round" stroke-linejoin="round" stroke-width="1.5"/>
    </g>
  </g>
</svg>
