<svg id="Icons_Social_Twitter_White" data-name="Icons / Social / Twitter / White" xmlns="http://www.w3.org/2000/svg" xmlns:xlink="http://www.w3.org/1999/xlink" width="32" height="32" viewBox="0 0 32 32">
  <defs>
    <clipPath id="clip-path">
      <path id="Clip_2" data-name="Clip 2" d="M0,0H20.981V16.812H0Z" transform="translate(0 0)" fill="none"/>
    </clipPath>
  </defs>
  <g id="Oval" fill="none" stroke="#231f20" stroke-miterlimit="10" stroke-width="1.5">
    <circle cx="16" cy="16" r="16" stroke="none"/>
    <circle cx="16" cy="16" r="15.25" fill="none"/>
  </g>
  <g id="Group_3" data-name="Group 3" transform="translate(6 8)">
    <path id="Clip_2-2" data-name="Clip 2" d="M0,0H20.981V16.812H0Z" transform="translate(0 0)" fill="none"/>
    <g id="Group_3-2" data-name="Group 3" clip-path="url(#clip-path)">
      <path id="Fill_1" data-name="Fill 1" d="M20.981,1.99a8.679,8.679,0,0,1-2.472.668A4.256,4.256,0,0,0,20.4.311a8.644,8.644,0,0,1-2.734,1.028A4.322,4.322,0,0,0,14.525,0a4.274,4.274,0,0,0-4.3,4.244,4.105,4.105,0,0,0,.111.967A12.278,12.278,0,0,1,1.461.776,4.211,4.211,0,0,0,2.793,6.443,4.35,4.35,0,0,1,.842,5.914v.052A4.26,4.26,0,0,0,4.3,10.127a4.267,4.267,0,0,1-1.135.149,4.32,4.32,0,0,1-.809-.075,4.3,4.3,0,0,0,4.021,2.946,8.715,8.715,0,0,1-5.346,1.818A8.955,8.955,0,0,1,0,14.907a12.327,12.327,0,0,0,6.6,1.906A12.073,12.073,0,0,0,18.845,4.737c0-.185,0-.369-.012-.549A8.671,8.671,0,0,0,20.981,1.99Z" transform="translate(0 0)" fill="#fff"/>
    </g>
  </g>
</svg>
