<svg id="Icons_Social_LinkedIn_Colour" data-name="Icons / Social / LinkedIn / Colour" xmlns="http://www.w3.org/2000/svg" xmlns:xlink="http://www.w3.org/1999/xlink" width="32" height="32" viewBox="0 0 32 32">
  <defs>
    <clipPath id="clip-path">
      <path id="Clip_2" data-name="Clip 2" d="M0,0H11.629V10.812H0Z" fill="none"/>
    </clipPath>
  </defs>
  <g id="Oval" fill="#f4a288" stroke="#231f20" stroke-miterlimit="10" stroke-width="1.5">
    <circle cx="16" cy="16" r="16" stroke="none"/>
    <circle cx="16" cy="16" r="15.25" fill="none"/>
  </g>
  <g id="Icons_UI_Colour_Arrow_" data-name="Icons / UI / Colour / Arrow  " transform="translate(6.154 6.154)">
    <g id="Group_3" data-name="Group 3" transform="translate(3.692 4.308)">
      <path id="Clip_2-2" data-name="Clip 2" d="M0,0H11.629V10.812H0Z" transform="translate(0 0)" fill="none"/>
      <g id="Group_3-2" data-name="Group 3" transform="translate(0 0)" clip-path="url(#clip-path)">
        <path id="Fill_1" data-name="Fill 1" d="M6.106,10.385H3.71c0-.056.031-6.469,0-7.054h2.4V4.437A2.163,2.163,0,0,1,8.234,3.262a2.535,2.535,0,0,1,1.921.781,3.5,3.5,0,0,1,.785,2.42v3.922H8.522V6.734c0-1.037-.43-1.608-1.21-1.608a1.231,1.231,0,0,0-1.155.864,1.4,1.4,0,0,0-.052.5c0,.025,0,.05,0,.075v3.818Zm-3.7,0H.276V3.33H2.408v7.054ZM1.288,2.447H1.272A1.207,1.207,0,0,1,0,1.225,1.211,1.211,0,0,1,1.3,0,1.205,1.205,0,0,1,2.588,1.223,1.209,1.209,0,0,1,1.288,2.447Z" transform="translate(0.684 0)" fill="#231f20"/>
      </g>
    </g>
  </g>
</svg>
