<svg id="Icons_Social_FaceBook_White" data-name="Icons / Social / FaceBook  / White" xmlns="http://www.w3.org/2000/svg" xmlns:xlink="http://www.w3.org/1999/xlink" width="32" height="32" viewBox="0 0 32 32">
  <defs>
    <clipPath id="clip-path">
      <path id="Clip_2" data-name="Clip 2" d="M0,0H6.17V12.85H0Z" fill="none"/>
    </clipPath>
  </defs>
  <g id="Icons_UI_Facebook_Dark_" data-name="Icons / UI / Facebook / Dark  ">
    <g id="Oval" fill="none" stroke="#231f20" stroke-miterlimit="10" stroke-width="1.5">
      <circle cx="16" cy="16" r="16" stroke="none"/>
      <circle cx="16" cy="16" r="15.25" fill="none"/>
    </g>
    <g id="Group_3" data-name="Group 3" transform="translate(13 10)">
      <path id="Clip_2-2" data-name="Clip 2" d="M0,0H6.17V12.85H0Z" transform="translate(0 0)" fill="none"/>
    </g>
  </g>
  <g id="Group_3-2" data-name="Group 3" transform="translate(13 10)" clip-path="url(#clip-path)">
    <path id="Fill_1" data-name="Fill 1" d="M0,4.25H1.322V2.959A3.459,3.459,0,0,1,1.748.968,2.348,2.348,0,0,1,3.8,0,8.266,8.266,0,0,1,6.171.24L5.84,2.208a4.444,4.444,0,0,0-1.065-.16c-.514,0-.975.185-.975.7v1.5H5.909L5.762,6.172H3.8v6.679H1.322V6.172H0Z" transform="translate(0 -0.001)" fill="#fff"/>
  </g>
</svg>
