<svg id="Icons_Social_LinkedIn_White" data-name="Icons / Social / LinkedIn / White" xmlns="http://www.w3.org/2000/svg" width="32" height="32" viewBox="0 0 32 32">
  <g id="Group_22" data-name="Group 22" transform="translate(9 10)">
    <path id="Fill_1" data-name="Fill 1" d="M6.355,10.81H3.862c0-.058.032-6.734,0-7.343H6.355V4.619A2.252,2.252,0,0,1,8.571,3.4a2.638,2.638,0,0,1,2,.812,3.64,3.64,0,0,1,.817,2.519v4.082H8.871V7.01c0-1.079-.447-1.674-1.259-1.674a1.281,1.281,0,0,0-1.2.9,1.461,1.461,0,0,0-.054.522c0,.026,0,.052,0,.078v3.974Zm-3.849,0H.287V3.466h2.22v7.342ZM1.34,2.547H1.324A1.256,1.256,0,0,1,0,1.275,1.26,1.26,0,0,1,1.356,0,1.255,1.255,0,0,1,2.694,1.273,1.259,1.259,0,0,1,1.34,2.547Z" transform="translate(1.111)" fill="#fff"/>
  </g>
  <g id="Oval" fill="none" stroke="#231f20" stroke-miterlimit="10" stroke-width="1.5">
    <circle cx="16" cy="16" r="16" stroke="none"/>
    <circle cx="16" cy="16" r="15.25" fill="none"/>
  </g>
</svg>
