<svg id="Icons_Social_Behance_White" data-name="Icons / Social / Behance / White" xmlns="http://www.w3.org/2000/svg" width="32" height="32" viewBox="0 0 32 32">
  <g id="Oval" fill="none" stroke="#231f20" stroke-miterlimit="10" stroke-width="1.5">
    <circle cx="16" cy="16" r="16" stroke="none"/>
    <circle cx="16" cy="16" r="15.25" fill="none"/>
  </g>
  <path id="Icon_simple-behance" data-name="Icon simple-behance" d="M5.784,6.755a7.434,7.434,0,0,1,1.6.157,3.6,3.6,0,0,1,1.238.509,2.343,2.343,0,0,1,.8.934A3.332,3.332,0,0,1,9.706,9.8a2.713,2.713,0,0,1-.423,1.551,3.054,3.054,0,0,1-1.252,1.017,2.938,2.938,0,0,1,1.686,1.142,3.422,3.422,0,0,1,.554,1.967,3.446,3.446,0,0,1-.342,1.609,3.085,3.085,0,0,1-.967,1.125,4.243,4.243,0,0,1-1.392.639,6.1,6.1,0,0,1-1.592.212H0V6.76H5.784Zm8.338,10.139a2.175,2.175,0,0,0,1.579.536,2.177,2.177,0,0,0,1.275-.373,1.535,1.535,0,0,0,.65-.784h2.157A4.058,4.058,0,0,1,18.2,18.566a4.573,4.573,0,0,1-2.568.692,5.109,5.109,0,0,1-1.894-.333,4.125,4.125,0,0,1-1.434-.95,4.252,4.252,0,0,1-.9-1.476,5.47,5.47,0,0,1-.311-1.892,5.07,5.07,0,0,1,.336-1.859,4.327,4.327,0,0,1,2.381-2.488A4.467,4.467,0,0,1,15.664,9.9a4.2,4.2,0,0,1,1.984.436A4,4,0,0,1,19.031,11.5a4.642,4.642,0,0,1,.784,1.684,6.727,6.727,0,0,1,.175,1.984H13.579a2.526,2.526,0,0,0,.592,1.721l-.067.025Zm-8.537.042a3.51,3.51,0,0,0,.755-.078,1.933,1.933,0,0,0,.636-.25,1.235,1.235,0,0,0,.434-.486,1.709,1.709,0,0,0,.158-.8,1.618,1.618,0,0,0-.534-1.351,2.3,2.3,0,0,0-1.409-.4H2.7v3.376H5.585v-.025Zm11.344-4.71a1.835,1.835,0,0,0-1.381-.494,2.067,2.067,0,0,0-.972.2,1.8,1.8,0,0,0-.617.492,1.736,1.736,0,0,0-.327.625,2.922,2.922,0,0,0-.113.592h3.97a2.381,2.381,0,0,0-.567-1.409v.008ZM5.435,11.712a1.941,1.941,0,0,0,1.188-.343,1.283,1.283,0,0,0,.462-1.115,1.571,1.571,0,0,0-.15-.705,1.218,1.218,0,0,0-.417-.427,1.765,1.765,0,0,0-.6-.214,3.69,3.69,0,0,0-.7-.062H2.693v2.868H5.435ZM13.02,7.579H18V8.791H13.02V7.577Z" transform="translate(6.249 2.747)" fill="#fff"/>
</svg>
