<svg id="Icons_Social_FaceBook_Colour" data-name="Icons / Social / FaceBook / Colour" xmlns="http://www.w3.org/2000/svg" xmlns:xlink="http://www.w3.org/1999/xlink" width="32" height="32" viewBox="0 0 32 32">
  <defs>
    <clipPath id="clip-path">
      <path id="Clip_2" data-name="Clip 2" d="M0,0H6.172V12.854H0Z" fill="#fff" stroke="rgba(0,0,0,0)" stroke-width="1"/>
    </clipPath>
  </defs>
  <g id="Icons_Social_FaceBook_Dark" data-name="Icons / Social / FaceBook  / Dark">
    <g id="Icons_UI_Facebook_Dark_" data-name="Icons / UI / Facebook / Dark  ">
      <g id="Oval" fill="#f4a288">
        <path d="M 16 31.25 C 11.92658042907715 31.25 8.096960067749023 29.66371917724609 5.216619968414307 26.78338050842285 C 2.336280107498169 23.90303993225098 0.75 20.07341957092285 0.75 16 C 0.75 11.92658042907715 2.336280107498169 8.096960067749023 5.216619968414307 5.216619968414307 C 8.096960067749023 2.336280107498169 11.92658042907715 0.75 16 0.75 C 20.07341957092285 0.75 23.90303993225098 2.336280107498169 26.78338050842285 5.216619968414307 C 29.66371917724609 8.096960067749023 31.25 11.92658042907715 31.25 16 C 31.25 20.07341957092285 29.66371917724609 23.90303993225098 26.78338050842285 26.78338050842285 C 23.90303993225098 29.66371917724609 20.07341957092285 31.25 16 31.25 Z" stroke="none"/>
        <path d="M 16 1.5 C 12.12690925598145 1.5 8.485639572143555 3.008260726928711 5.746950149536133 5.746950149536133 C 3.008260726928711 8.485639572143555 1.5 12.12690925598145 1.5 16 C 1.5 19.87308883666992 3.008260726928711 23.51436042785645 5.746950149536133 26.25304985046387 C 8.485639572143555 28.99173927307129 12.12690925598145 30.5 16 30.5 C 19.87308883666992 30.5 23.51436042785645 28.99173927307129 26.25304985046387 26.25304985046387 C 28.99173927307129 23.51436042785645 30.5 19.87308883666992 30.5 16 C 30.5 12.12690925598145 28.99173927307129 8.485639572143555 26.25304985046387 5.746950149536133 C 23.51436042785645 3.008260726928711 19.87308883666992 1.5 16 1.5 M 16 0 C 24.8365592956543 0 32 7.163440704345703 32 16 C 32 24.8365592956543 24.8365592956543 32 16 32 C 7.163440704345703 32 0 24.8365592956543 0 16 C 0 7.163440704345703 7.163440704345703 0 16 0 Z" stroke="none" fill="#231f20"/>
      </g>
      <path id="Clip_2-2" data-name="Clip 2" d="M0,0H6.172V12.854H0Z" transform="translate(12.923 9.846)" fill="#f4a288" stroke="rgba(0,0,0,0)" stroke-width="1"/>
      <g id="Group_3" data-name="Group 3" transform="translate(12.923 9.846)" clip-path="url(#clip-path)">
        <path id="Fill_1" data-name="Fill 1" d="M0,4.251H1.322V2.959A3.46,3.46,0,0,1,1.749.968,2.349,2.349,0,0,1,3.8,0,8.269,8.269,0,0,1,6.173.24L5.842,2.208a4.445,4.445,0,0,0-1.065-.16c-.514,0-.976.185-.976.7v1.5H5.91L5.764,6.174H3.8v6.681H1.322V6.174H0Z" transform="translate(0 -0.001)" fill="#231f20" stroke="rgba(0,0,0,0)" stroke-width="1"/>
      </g>
    </g>
  </g>
</svg>
