<svg id="Icons_Social_Dribble_Colour" data-name="Icons / Social / Dribble / Colour" xmlns="http://www.w3.org/2000/svg" width="32" height="32" viewBox="0 0 32 32">
  <g id="Oval" fill="#f4a288" stroke="#231f20" stroke-miterlimit="10" stroke-width="1.5">
    <circle cx="16" cy="16" r="16" stroke="none"/>
    <circle cx="16" cy="16" r="15.25" fill="none"/>
  </g>
  <path id="Icon_simple-dribbble" data-name="Icon simple-dribbble" d="M10,20A10,10,0,1,1,20,10,10.013,10.013,0,0,1,10,20Zm8.433-8.632A12.527,12.527,0,0,0,13.113,11a36.94,36.94,0,0,1,1.66,6.09,8.567,8.567,0,0,0,3.663-5.725Zm-5.1,6.507A35.535,35.535,0,0,0,11.512,11.4l-.055.017a11.668,11.668,0,0,0-6.7,5.333,8.519,8.519,0,0,0,8.575,1.127Zm-9.683-2.15A13.545,13.545,0,0,1,10.6,10.088c.112-.038.225-.07.337-.1-.217-.488-.45-.972-.693-1.45A31.483,31.483,0,0,1,1.463,9.75l0,.26a8.515,8.515,0,0,0,2.2,5.712ZM1.637,8.263a31.717,31.717,0,0,0,7.9-1.04,54.561,54.561,0,0,0-3.167-4.94,8.563,8.563,0,0,0-4.73,5.975ZM8,1.71a45.577,45.577,0,0,1,3.185,5,9.637,9.637,0,0,0,4.478-3.085A8.522,8.522,0,0,0,8,1.708Zm8.613,2.9a11.419,11.419,0,0,1-4.77,3.367c.2.408.392.821.567,1.238.067.15.125.3.183.442a20,20,0,0,1,5.95.275,8.453,8.453,0,0,0-1.925-5.317Z" transform="translate(6.25 5.75)" fill="#231f20"/>
</svg>
