<svg xmlns="http://www.w3.org/2000/svg" viewBox="0 0 193.64 175.36"><defs><style>.cls-1{stroke:#fff;stroke-miterlimit:10;}</style></defs><g id="Layer_22" data-name="Layer 22"><path class="cls-1" d="M124.78,23.29c5.63,0,8.85,4.74,6.71,9.83q-11,26-21.93,52.07-2.18,5.16-4.42,10.28c-.54,1.24-1.16,2-2.8,1.21-4.49-2.21-9.09-4.24-13.61-6.39-1.36-.64-1-1.74-.47-2.78q4.15-8.17,8.29-16.35,11.27-22.2,22.53-44.4A5.68,5.68,0,0,1,124.78,23.29Z"/><path class="cls-1" d="M102.78,100.31c-3.94,6.48-7.67,12.6-11.38,18.74-.67,1.11-1.45,1.18-2.55.62a84.49,84.49,0,0,0-7.91-3.81c-1.78-.7-2.2-1.71-1.68-3.32,1.23-3.84,2.51-7.67,3.78-11.5.74-2.24,1.41-4.52,2.32-6.69.26-.61,1.51-1.43,1.91-1.25C92.38,95.36,97.42,97.79,102.78,100.31Z"/><path class="cls-1" d="M69.55,146.44c0-.85,0-1.7,0-2.54,0-5.89.14-11.77.08-17.65a3.61,3.61,0,0,1,1.75-3.42c2.28-1.49,4.46-4,6.84-4.21s4.9,2,7.47,2.93c2.16.74,2.62,2.18,3,4.22.91,5.2-.35,9.08-5,12.08-3.36,2.15-6.12,5.23-9.16,7.87-.57.51-1.22.94-1.83,1.41l-.52-.3c.33-.93.58-1.9,1-2.8,1.61-3.52,3.2-7.07,5-10.52a7.44,7.44,0,0,1,2.48-2.77c1.5-1,1.85-2.38,1-3.48a3.77,3.77,0,0,0-3.34-.9,2.12,2.12,0,0,0-1.16,3.19,2.46,2.46,0,0,1,.25,1.83c-2.31,5.09-4.71,10.14-7.08,15.19Z"/></g></svg>