<svg xmlns="http://www.w3.org/2000/svg" viewBox="0 0 193.64 175.36"><defs><style>.cls-1,.cls-4{fill:#231f20;}.cls-1,.cls-3{stroke:#fff;}.cls-1,.cls-2,.cls-3{stroke-miterlimit:10;}.cls-2,.cls-3{fill:none;}.cls-2{stroke:#231f20;}</style></defs><g id="Layer_18" data-name="Layer 18"><rect class="cls-1" x="29.79" y="57.32" width="135.19" height="74.51" rx="2.19"/><path class="cls-1" d="M40,43.21H57.67a2,2,0,0,1,2,2V56.2a0,0,0,0,1,0,0H37.93a0,0,0,0,1,0,0V45.25A2,2,0,0,1,40,43.21Z"/><path class="cls-1" d="M123,39.25c-6.87-.29-24.22,0-24.22,0s-17.34-.29-24.21,0S66.69,56.4,66.69,56.4l32.06.27,32.07-.27S129.84,39.54,123,39.25Z"/><line class="cls-2" x1="129.73" y1="77.12" x2="164.98" y2="77.12"/><line class="cls-3" x1="29.79" y1="101.26" x2="164.98" y2="101.26"/><path class="cls-3" d="M78.12,57.32s-6.69,2.45-8.53,7.16S68,76.18,66.69,76.65a10.82,10.82,0,0,1-3.07.47h1.76"/><path class="cls-3" d="M118.18,57.32s5.16,2.45,7,7.16,1.6,11.7,2.91,12.17a10.82,10.82,0,0,0,3.07.47H129.4"/><circle class="cls-1" cx="98.48" cy="113" r="37.96"/><circle class="cls-1" cx="98.48" cy="113" r="25.23"/><path class="cls-3" d="M40,64.35H57.67a2,2,0,0,1,2,2v4.73a0,0,0,0,1,0,0H37.93a0,0,0,0,1,0,0V66.39A2,2,0,0,1,40,64.35Z"/><rect class="cls-4" x="34.61" y="69.88" width="28.23" height="4.74"/></g></svg>