<svg xmlns="http://www.w3.org/2000/svg" viewBox="0 0 193.64 175.36"><defs><style>.cls-1,.cls-2{fill:#231f20;}.cls-1{stroke:#fff;stroke-miterlimit:10;}.cls-3{fill:#fff;}</style></defs><g id="Layer_21" data-name="Layer 21"><circle class="cls-1" cx="97.05" cy="89.44" r="67.42"/><rect class="cls-2" x="73.88" y="45.01" width="46.12" height="80.38"/><rect class="cls-2" x="91.3" y="127.14" width="11.62" height="7.64"/><rect class="cls-2" x="90.56" y="40.55" width="12.98" height="3.59"/><path class="cls-3" d="M72.12,86q0-19.56,0-39.12c0-7.5,3.12-10.61,10.67-10.62q14.31,0,28.63,0c6.78,0,10.21,3.38,10.21,10.14q0,39.91,0,79.84c0,6.67-3.26,10.07-9.87,10.12q-14.79.12-29.58,0c-6.9-.05-10-3.31-10.05-10.27C72.1,112.68,72.12,99.32,72.12,86Zm2.54.14h0c0,12,0,23.94-.05,35.92,0,2.4.58,3.4,3.17,3.38q19.08-.16,38.15,0c2.56,0,3.19-.89,3.18-3.34q-.13-35.76,0-71.52c0-2.71-.89-3.4-3.45-3.38-12.5.1-25,.12-37.51,0-2.88,0-3.58,1-3.55,3.68C74.73,62.57,74.66,74.34,74.66,86.1Zm22.17,48c2-.08,3.35-1.14,3.43-3.27a3.38,3.38,0,1,0-6.76-.29C93.45,132.66,94.56,133.94,96.83,134.14ZM100.93,42H93A12.11,12.11,0,0,0,100.93,42Z"/></g></svg>