<svg xmlns="http://www.w3.org/2000/svg" viewBox="0 0 33.18 49.1"><defs><style>.cls-1{fill:#fff;}.cls-2{fill:#4f2a3e;}.cls-2,.cls-3,.cls-4,.cls-5{stroke:#fff;stroke-miterlimit:10;}.cls-3{fill:#f4a288;}.cls-4{fill:#6f71ab;}.cls-5{fill:#6a92ca;}</style></defs><g id="Layer_2" data-name="Layer 2"><g id="groupedlogo"><path class="cls-1" d="M.81,38.2v-6H2A3,3,0,0,1,4.21,33a3.14,3.14,0,0,1,.87,2.17,3.11,3.11,0,0,1-.87,2.16A3,3,0,0,1,2,38.2Zm.4-.36H2a2.64,2.64,0,1,0,0-5.28H1.21Z" transform="translate(-0.04)"/><path class="cls-1" d="M9.25,32.56H6.77v2.17H9.2v.36H6.77v2.75H9.25v.36H6.37v-6H9.25Z" transform="translate(-0.04)"/><path class="cls-1" d="M13.28,33.21a1.25,1.25,0,0,0-1.17-.73A1.06,1.06,0,0,0,11,33.59c0,.65.45.87,1,1.16a9.33,9.33,0,0,1,1.2.63,1.33,1.33,0,0,1,.64,1.16A1.8,1.8,0,0,1,12,38.3a1.73,1.73,0,0,1-1.4-.63,2.12,2.12,0,0,1-.39-.66l.35-.16a2.18,2.18,0,0,0,.32.58,1.45,1.45,0,0,0,1.13.51,1.39,1.39,0,0,0,1.44-1.39,1,1,0,0,0-.58-.94c-.17-.1-.52-.28-1-.52s-.89-.45-1.1-.8a1.31,1.31,0,0,1-.18-.68,1.46,1.46,0,0,1,1.53-1.5,1.6,1.6,0,0,1,1.46.86Z" transform="translate(-0.04)"/><path class="cls-1" d="M15.57,32.2v6h-.4v-6Z" transform="translate(-0.04)"/><path class="cls-1" d="M20.32,35.32h2.52a3.19,3.19,0,0,1-.61,2,2.76,2.76,0,0,1-2.26,1,3,3,0,0,1-3.1-3.09A3.06,3.06,0,0,1,20,32.11a2.91,2.91,0,0,1,1.88.65,3.53,3.53,0,0,1,.72.76l-.31.25a2.82,2.82,0,0,0-.58-.66A2.72,2.72,0,1,0,20,37.94a2.47,2.47,0,0,0,2.09-1,2.63,2.63,0,0,0,.4-1.24H20.32Z" transform="translate(-0.04)"/><path class="cls-1" d="M24.14,38.2V32.13l5,5.28V32.2h.4v6.15l-5-5.27V38.2Z" transform="translate(-0.04)"/><path class="cls-1" d="M3.55,44a1.27,1.27,0,0,0-1.18-.73,1.07,1.07,0,0,0-1.12,1.11c0,.65.45.87,1,1.16a8.69,8.69,0,0,1,1.2.63,1.33,1.33,0,0,1,.64,1.16A1.79,1.79,0,0,1,2.27,49.1a1.73,1.73,0,0,1-1.4-.63,1.87,1.87,0,0,1-.38-.66l.34-.16a2.18,2.18,0,0,0,.32.58,1.45,1.45,0,0,0,1.13.51,1.4,1.4,0,0,0,1.45-1.39,1.06,1.06,0,0,0-.59-.94c-.17-.1-.52-.28-1-.52s-.89-.45-1.09-.8a1.23,1.23,0,0,1-.19-.68,1.47,1.47,0,0,1,1.54-1.5,1.62,1.62,0,0,1,1.46.86Z" transform="translate(-0.04)"/><path class="cls-1" d="M6.34,43.36V49h-.4V43.36H4.38V43H7.89v.36Z" transform="translate(-0.04)"/><path class="cls-1" d="M9.23,43v3.75a2.23,2.23,0,0,0,.25,1.3,1.64,1.64,0,0,0,1.39.69,1.64,1.64,0,0,0,1.4-.69,2.31,2.31,0,0,0,.25-1.3V43h.4v3.75a2.44,2.44,0,0,1-.35,1.54,2,2,0,0,1-1.7.81,2,2,0,0,1-1.7-.81,2.5,2.5,0,0,1-.34-1.54V43Z" transform="translate(-0.04)"/><path class="cls-1" d="M14.54,49V43h1.18a3.05,3.05,0,0,1,2.22.83A3.13,3.13,0,0,1,18.8,46a3.09,3.09,0,0,1-.86,2.16,3,3,0,0,1-2.22.84Zm.39-.36h.79a2.64,2.64,0,1,0,0-5.28h-.79Z" transform="translate(-0.04)"/><path class="cls-1" d="M20.49,43v6H20.1V43Z" transform="translate(-0.04)"/><path class="cls-1" d="M28,46a3.12,3.12,0,1,1-3.12-3.1A3.07,3.07,0,0,1,28,46Zm-.41,0a2.71,2.71,0,1,0-2.71,2.73A2.67,2.67,0,0,0,27.61,46Z" transform="translate(-0.04)"/><path class="cls-2" d="M19,18.71A9.58,9.58,0,0,1,13.15,28,9.68,9.68,0,0,1,1.28,25c-.78-1-.77-1,.27-1.64.48-.3,1-.61,1.46-.87,1.2-.64,1.17-.6,2.12.35a5.55,5.55,0,0,0,9.16-1.65,5,5,0,0,0,0-4.46c-.27-.55,0-.73.33-.92.94-.53,1.94-1,2.86-1.55.3-.18.29-.2.46.1A8.93,8.93,0,0,1,19,18.71Z" transform="translate(-0.04)"/><path class="cls-3" d="M.54,9.83A8.82,8.82,0,0,1,5.89,1.41,9.11,9.11,0,0,1,17.44,4.55c.28.37.35.74-.24,1a16.3,16.3,0,0,0-2.36,1.37c-.57.41-.83.26-1.23-.24A4.65,4.65,0,0,0,9.19,4.87,4.91,4.91,0,0,0,5.1,11.3c.23.62.33,1.17-.52,1.55a10.9,10.9,0,0,0-2.23,1.23c-.64.47-.82.08-1-.36A8.13,8.13,0,0,1,.54,9.83Z" transform="translate(-0.04)"/><rect class="cls-4" x="22.4" y="1.14" width="10.28" height="3.69" rx="1.65"/><rect class="cls-5" x="22.22" y="24.4" width="10.28" height="3.69" rx="1.65"/><rect class="cls-3" x="21.34" y="15.24" width="12.19" height="4.26" rx="1.66" transform="translate(44.77 -10.07) rotate(90)"/><rect class="cls-5" x="2.3" y="13.51" width="7.12" height="2.24" rx="0.65" transform="translate(-6.57 4.89) rotate(-30)"/><rect class="cls-4" x="10.12" y="12.79" width="7.12" height="2.24" rx="1" transform="translate(-5.16 8.7) rotate(-30)"/><rect class="cls-2" x="24.92" y="5.34" width="4.96" height="4.96" rx="2.22"/></g></g></svg>