<svg xmlns="http://www.w3.org/2000/svg" width="363.649" height="69.923" viewBox="0 0 363.649 69.923">
  <g id="Group_19" data-name="Group 19" transform="translate(14778.501 6515.362)">
    <text id="DESIGN_STUDIO" data-name="DESIGNSTUDIO" transform="translate(-14516.852 -6486.362)" fill="#fff" font-size="30" font-family="FuturaPT-Light, Futura PT" font-weight="300"><tspan x="0" y="0">DESIGN</tspan><tspan x="0" y="30" letter-spacing="-0.04em">S</tspan><tspan y="30">TUDIO</tspan></text>
    <path id="Path_31" data-name="Path 31" d="M135.1,3.08c3.06,8.246,6.287,16.691,9.147,24.644,3.143,8.634,6.549,17.142,9.818,25.712,1.456,3.814,2.829,7.659,4.243,11.526.367,1.048.241,1.561-1.048,1.53a65.618,65.618,0,0,0-7.6,0c-1.8.157-2.42-.723-2.944-2.1-2.2-5.951-15.465-41.785-16.041-42.959-1.048-2.211-1.31-2.651-1.32-3.6C129.339,16.617,133.226,6.842,135.1,3.08Z" transform="translate(-14776.068 -6513.178)" fill="#f4a288" stroke="#fff" stroke-miterlimit="10" stroke-width="1"/>
    <path id="Path_32" data-name="Path 32" d="M44.768,42.635C44.6,53.563,39.529,60.793,30.7,64.816c-10,4.558-21.186,1.928-28.447-7.209C.4,55.281.426,55.239,2.91,53.689c1.153-.712,2.295-1.456,3.489-2.1,2.892-1.54,2.819-1.435,5.082.849,7.072,7.156,17.865,4.725,22-3.961A12.06,12.06,0,0,0,33.421,37.8c-.65-1.331,0-1.76.775-2.2,2.263-1.278,4.642-2.368,6.863-3.73.712-.43.7-.461,1.048.241a21.375,21.375,0,0,1,2.661,10.52Z" transform="translate(-14778.481 -6512.97)" fill="#4f2a3e" stroke="#fff" stroke-miterlimit="10" stroke-width="1"/>
    <path id="Path_33" data-name="Path 33" d="M.521,22.859c.126-9.336,4.495-16.419,12.8-20.18C23.32-1.858,34.05.71,41.007,10.2c.65.9.828,1.76-.6,2.441a38.768,38.768,0,0,0-5.637,3.29c-1.373.964-1.991.618-2.955-.587a11.138,11.138,0,0,0-10.593-4.369c-7.251.943-12.4,8.382-9.8,15.4.545,1.467.8,2.808-1.226,3.709a27.462,27.462,0,0,0-5.365,2.934c-1.53,1.142-1.959.2-2.4-.849A19.447,19.447,0,0,1,.521,22.859Z" transform="translate(-14778.502 -6513.301)" fill="#f4a288" stroke="#fff" stroke-miterlimit="10" stroke-width="1"/>
    <path id="Path_34" data-name="Path 34" d="M104.829,65.708h-.21c-5.888,0-5.847,0-3.688-5.511,2.777-7.146,5.49-14.323,8.194-21.5,2.357-6.287,4.631-12.573,6.978-18.86a1.834,1.834,0,0,1,1.97-1.456c2.6.1,5.239.084,7.816,0,1.394,0,1.666.4,1.184,1.7-1.31,3.552-2.494,7.167-3.793,10.729-2.179,5.983-4.495,11.913-6.611,17.917-1.876,5.375-4.128,10.614-5.92,16.031a1.561,1.561,0,0,1-1.687.985C107.647,65.677,106.243,65.708,104.829,65.708Z" transform="translate(-14776.612 -6513.229)" fill="#4f2a3e" stroke="#fff" stroke-miterlimit="10" stroke-width="1"/>
    <path id="Path_35" data-name="Path 35" d="M196.465,59.849v1.257c0,4.191-.136,4.338-4.327,3.636a34.325,34.325,0,0,1-13.37-5.05,31.066,31.066,0,0,1-11.012-12.186,31.5,31.5,0,0,1-3.416-11.525c-.1-1.446.346-2.1,1.876-1.97,2.169.115,4.359.073,6.538,0,1.174,0,1.687.272,1.917,1.561.807,4.411,2.284,8.529,5.427,11.934a21.113,21.113,0,0,0,11.976,6.611c1.163.22,2.326.451,3.489.608.754.094.87.513.859,1.142C196.4,57.177,196.465,58.508,196.465,59.849Z" transform="translate(-14775.472 -6512.878)" fill="#6a92ca" stroke="#fff" stroke-miterlimit="10" stroke-width="1"/>
    <path id="Path_36" data-name="Path 36" d="M196.467,7.517c0,4.935,0,4.736-4.956,5.731A20.075,20.075,0,0,0,176.14,26.021a15.832,15.832,0,0,0-1.561,5.763c0,1.048-.7,1.373-1.477,1.4-2.525.073-5.061,0-7.6,0-1.048,0-1.2-.576-1.215-1.519a18.733,18.733,0,0,1,1.111-6.35,32.963,32.963,0,0,1,3.384-7.617A33.707,33.707,0,0,1,179.567,7.077,34.189,34.189,0,0,1,194.12,2.341c1.844-.168,2.609.3,2.326,2.232a21.222,21.222,0,0,0,.021,2.944Z" transform="translate(-14775.475 -6513.214)" fill="#6f71ab" stroke="#fff" stroke-miterlimit="10" stroke-width="1"/>
    <path id="Path_37" data-name="Path 37" d="M202.769,64.028c-5.239,0-5.239,0-5.239-5.239,0-5.019,0-5.019,5.05-5.019,5.742,0,5.742,0,5.742,5.658,0,4.589,0,4.589-4.694,4.589Z" transform="translate(-14775.353 -6512.254)" fill="#4f2a3e" stroke="#fff" stroke-miterlimit="10" stroke-width="1"/>
    <path id="Path_38" data-name="Path 38" d="M80.135,19.376c0,5.124,0,5.124-5.145,5.124s-5.061,0-5.061-4.956c0-5.323,0-5.323,5.354-5.333,4.851,0,4.851,0,4.851,4.746Z" transform="translate(-14777.037 -6512.646)" fill="#f4a288" stroke="#fff" stroke-miterlimit="10" stroke-width="1"/>
    <path id="Path_39" data-name="Path 39" d="M94.688,2.28c4.841,0,4.841,0,4.841,4.893s0,4.966-4.914,4.966c-5.155,0-5.155,0-5.155-5.061,0-4.8,0-4.8,4.809-4.8Z" transform="translate(-14776.623 -6513.216)" fill="#4f2a3e" stroke="#fff" stroke-miterlimit="10" stroke-width="1"/>
    <rect id="Rectangle_31" data-name="Rectangle 31" width="24.623" height="8.833" rx="2.22" transform="translate(-14552.623 -6511.261)" fill="#6f71ab" stroke="#fff" stroke-miterlimit="10" stroke-width="1"/>
    <rect id="Rectangle_32" data-name="Rectangle 32" width="24.623" height="8.833" rx="2.22" transform="translate(-14553.063 -6457.057)" fill="#6a92ca" stroke="#fff" stroke-miterlimit="10" stroke-width="1"/>
    <rect id="Rectangle_33" data-name="Rectangle 33" width="29.212" height="10.195" rx="1.66" transform="translate(-14535.555 -6487.851) rotate(90)" fill="#f4a288" stroke="#fff" stroke-miterlimit="10" stroke-width="1"/>
    <rect id="Rectangle_34" data-name="Rectangle 34" width="38.128" height="9.786" rx="2.22" transform="translate(-14726.965 -6510.873)" fill="#6a92ca" stroke="#fff" stroke-miterlimit="10" stroke-width="1"/>
    <rect id="Rectangle_35" data-name="Rectangle 35" width="38.862" height="10.059" rx="2.22" transform="translate(-14707.105 -6447.776) rotate(-90)" fill="#6f71ab" stroke="#fff" stroke-miterlimit="10" stroke-width="1"/>
    <rect id="Rectangle_36" data-name="Rectangle 36" width="17.047" height="5.375" rx="0.65" transform="translate(-14773.972 -6477.765) rotate(-30)" fill="#6a92ca" stroke="#fff" stroke-miterlimit="10" stroke-width="1"/>
    <rect id="Rectangle_37" data-name="Rectangle 37" width="17.047" height="5.375" rx="1.12" transform="translate(-14755.247 -6479.45) rotate(-30)" fill="#6f71ab" stroke="#fff" stroke-miterlimit="10" stroke-width="1"/>
    <path id="Path_40" data-name="Path 40" d="M122.422,2.22h9.818a.723.723,0,0,1,.66,1.048l-5.134,12.154a.4.4,0,0,1-.723,0L121.8,3.278a.723.723,0,0,1,.618-1.058Z" transform="translate(-14775.957 -6513.219)" fill="#6f71ab" stroke="#fff" stroke-miterlimit="10" stroke-width="1"/>
    <rect id="Rectangle_38" data-name="Rectangle 38" width="11.892" height="11.892" rx="5.67" transform="translate(-14654.399 -6470.77)" fill="#6a92ca" stroke="#fff" stroke-miterlimit="10" stroke-width="1"/>
    <rect id="Rectangle_39" data-name="Rectangle 39" width="11.892" height="11.892" rx="5.67" transform="translate(-14578.378 -6511.92)" fill="#f4a288" stroke="#fff" stroke-miterlimit="10" stroke-width="1"/>
    <rect id="Rectangle_40" data-name="Rectangle 40" width="11.892" height="11.892" rx="5.67" transform="translate(-14546.588 -6501.212)" fill="#4f2a3e" stroke="#fff" stroke-miterlimit="10" stroke-width="1"/>
  </g>
</svg>
