<svg xmlns="http://www.w3.org/2000/svg" viewBox="0 0 233.83 62.78"><defs><style>.cls-1{fill:#f4a288;}.cls-1,.cls-2,.cls-3,.cls-4{stroke:#fff;stroke-miterlimit:10;}.cls-2{fill:#4f2a3e;}.cls-3{fill:#6a92ca;}.cls-4{fill:#6f71ab;}</style></defs><g id="Layer_2" data-name="Layer 2"><g id="groupedlogo"><path class="cls-1" d="M128.38,3c2.79,7.48,5.72,15.16,8.31,22.39,2.82,7.84,6,15.57,8.93,23.36,1.32,3.46,2.57,7,3.85,10.44.34.91.22,1.42-.95,1.39a59,59,0,0,0-6.91,0c-1.64.14-2.2-.66-2.68-2-2-5.4-14.05-37.95-14.57-39.07-.93-2-1.19-2.41-1.2-3.28S126.68,6.37,128.38,3Z"/><path class="cls-2" d="M40.74,40.13C40.59,50.06,36,56.63,28,60.28,18.88,64.43,8.71,62,2.11,53.74c-1.69-2.12-1.66-2.16.6-3.56,1-.66,2.08-1.33,3.17-1.91,2.62-1.4,2.56-1.3,4.61.77,6.43,6.5,16.23,4.29,20-3.59a11,11,0,0,0-.06-9.71c-.59-1.21,0-1.6.71-2,2.06-1.17,4.22-2.16,6.23-3.39.64-.4.64-.42,1,.22A19.34,19.34,0,0,1,40.74,40.13Z"/><path class="cls-1" d="M.52,20.81C.64,12.33,4.6,5.9,12.15,2.48,21.23-1.64,31,.69,37.3,9.32c.59.81.75,1.6-.54,2.21a35,35,0,0,0-5.12,3c-1.24.87-1.81.56-2.69-.54a10.1,10.1,0,0,0-9.62-4c-6.59.85-11.26,7.58-8.9,14,.49,1.34.73,2.55-1.12,3.37a25.07,25.07,0,0,0-4.87,2.67c-1.39,1-1.78.18-2.18-.77A17.66,17.66,0,0,1,.52,20.81Z"/><path class="cls-2" d="M99.59,60.52H99.4c-5.35,0-5.31,0-3.36-5q3.79-9.75,7.45-19.54c2.14-5.71,4.22-11.45,6.34-17.16a1.66,1.66,0,0,1,1.79-1.33c2.37.1,4.74.08,7.1,0,1.27,0,1.52.36,1.08,1.54-1.19,3.23-2.26,6.51-3.45,9.75-2,5.44-4.08,10.82-6,16.28C108.64,50,106.6,54.72,105,59.63a1.43,1.43,0,0,1-1.54.9C102.15,60.49,100.87,60.52,99.59,60.52Z"/><path class="cls-3" d="M185.62,55.87V57c0,3.82-.13,3.94-3.94,3.3a31.17,31.17,0,0,1-12.14-4.59,28.13,28.13,0,0,1-10-11.07,28.41,28.41,0,0,1-3.11-10.5c-.09-1.31.31-1.85,1.7-1.79,2,.1,4,.07,5.94,0,1.07,0,1.53.25,1.75,1.42a20.85,20.85,0,0,0,4.93,10.84,19.12,19.12,0,0,0,10.88,6c1.05.2,2.11.41,3.17.55.68.08.79.46.78,1C185.6,53.45,185.61,54.66,185.62,55.87Z"/><path class="cls-4" d="M185.62,7c0,4.48,0,4.3-4.51,5.2a18.25,18.25,0,0,0-13.92,11.61A14.35,14.35,0,0,0,165.77,29c0,1-.64,1.25-1.34,1.27-2.3.07-4.6,0-6.9,0-.93,0-1.1-.52-1.11-1.38a17.15,17.15,0,0,1,1-5.76,29.74,29.74,0,0,1,3.08-6.92,30.44,30.44,0,0,1,9.8-9.69,31,31,0,0,1,13.22-4.31c1.67-.15,2.36.28,2.11,2A18.41,18.41,0,0,0,185.62,7Z"/><path class="cls-2" d="M192.83,60.54c-4.77,0-4.77,0-4.77-4.76,0-4.56,0-4.56,4.59-4.56,5.21,0,5.21,0,5.21,5.14,0,4.17,0,4.17-4.26,4.18Z"/><path class="cls-1" d="M75.87,18.25c0,4.65,0,4.65-4.68,4.65s-4.6,0-4.6-4.51c0-4.83,0-4.83,4.87-4.83,4.41,0,4.41,0,4.41,4.3Z"/><path class="cls-2" d="M89.94,2.2c4.39,0,4.39,0,4.39,4.44s0,4.52-4.46,4.52c-4.68,0-4.68,0-4.68-4.61,0-4.35,0-4.35,4.36-4.35Z"/><rect class="cls-4" x="210.96" y="1.9" width="22.37" height="8.03" rx="2.22"/><rect class="cls-3" x="210.56" y="52.53" width="22.37" height="8.03" rx="2.22"/><rect class="cls-1" x="208.57" y="32.58" width="26.54" height="9.26" rx="1.66" transform="translate(259.05 -184.63) rotate(90)"/><rect class="cls-3" x="48.24" y="2.25" width="34.64" height="8.9" rx="2.22"/><rect class="cls-4" x="53.5" y="38.27" width="35.31" height="9.14" rx="2.22" transform="translate(28.32 114) rotate(-90)"/><rect class="cls-3" x="4.35" y="28.82" width="15.49" height="4.88" rx="0.65" transform="translate(-14.01 10.23) rotate(-30)"/><rect class="cls-4" x="21.35" y="27.25" width="15.49" height="4.88" rx="1.12" transform="translate(-10.95 18.53) rotate(-30)"/><path class="cls-4" d="M116.53,2.14h8.92a.66.66,0,0,1,.61.91l-4.67,11a.36.36,0,0,1-.66,0l-4.8-11A.66.66,0,0,1,116.53,2.14Z"/><rect class="cls-3" x="115.75" y="39.76" width="10.8" height="10.8" rx="5.4"/><rect class="cls-1" x="187.56" y="1.3" width="10.8" height="10.8" rx="5.4"/><rect class="cls-2" x="216.44" y="11.03" width="10.8" height="10.8" rx="5.4"/></g></g></svg>