<svg xmlns="http://www.w3.org/2000/svg" viewBox="0 0 245.58 136.69"><defs><style>.cls-1{font-size:31.76px;fill:#fff;font-family:FuturaPT-Light, Futura PT;font-weight:300;}.cls-2{letter-spacing:-0.04em;}.cls-3{fill:#f4a288;}.cls-3,.cls-4,.cls-5,.cls-6{stroke:#fff;stroke-miterlimit:10;}.cls-4{fill:#4f2a3e;}.cls-5{fill:#6a92ca;}.cls-6{fill:#6f71ab;}</style></defs><g id="Layer_2" data-name="Layer 2"><g id="groupedlogo"><text class="cls-1" transform="translate(14.96 103.3)">DESIGN <tspan class="cls-2" x="114.61" y="0">S</tspan><tspan x="129.63" y="0">TUDIO</tspan></text><path class="cls-3" d="M134.84,3.08c2.92,7.87,6,15.93,8.73,23.52,3,8.24,6.25,16.36,9.37,24.54,1.39,3.64,2.7,7.31,4.05,11,.35,1,.23,1.49-1,1.46a62.62,62.62,0,0,0-7.25,0c-1.72.15-2.31-.69-2.81-2-2.1-5.68-14.76-39.88-15.31-41-1-2.11-1.25-2.53-1.26-3.44C129.34,16,133.05,6.67,134.84,3.08Z"/><path class="cls-4" d="M42.77,42.13c-.16,10.43-5,17.33-13.43,21.17C19.8,67.65,9.12,65.14,2.19,56.42.42,54.2.45,54.16,2.82,52.68c1.1-.68,2.19-1.39,3.33-2,2.76-1.47,2.69-1.37,4.85.81,6.75,6.83,17.05,4.51,21-3.78a11.51,11.51,0,0,0-.06-10.19c-.62-1.27,0-1.68.74-2.1,2.16-1.22,4.43-2.26,6.55-3.56.68-.41.67-.44,1,.23A20.4,20.4,0,0,1,42.77,42.13Z"/><path class="cls-3" d="M.52,21.84C.64,12.93,4.81,6.17,12.74,2.58,22.28-1.75,32.52.7,39.16,9.76c.62.86.79,1.68-.57,2.33a37,37,0,0,0-5.38,3.14c-1.31.92-1.9.59-2.82-.56A10.63,10.63,0,0,0,20.28,10.5c-6.92.9-11.83,8-9.35,14.7.52,1.4.76,2.68-1.17,3.54a26.21,26.21,0,0,0-5.12,2.8c-1.46,1.09-1.87.19-2.29-.81A18.56,18.56,0,0,1,.52,21.84Z"/><path class="cls-4" d="M104.59,63.55h-.2c-5.62,0-5.58,0-3.52-5.26,2.65-6.82,5.24-13.67,7.82-20.52,2.25-6,4.42-12,6.66-18a1.75,1.75,0,0,1,1.88-1.39c2.48.1,5,.08,7.46,0,1.33,0,1.59.38,1.13,1.62-1.25,3.39-2.38,6.84-3.62,10.24-2.08,5.71-4.29,11.37-6.31,17.1-1.79,5.13-3.94,10.13-5.65,15.3a1.49,1.49,0,0,1-1.61.94C107.28,63.52,105.94,63.55,104.59,63.55Z"/><path class="cls-5" d="M195,58.67v1.2c0,4-.13,4.14-4.13,3.47a32.76,32.76,0,0,1-12.76-4.82A29.65,29.65,0,0,1,167.6,46.89a30.06,30.06,0,0,1-3.26-11c-.1-1.38.33-2,1.79-1.88,2.07.11,4.16.07,6.24,0,1.12,0,1.61.26,1.83,1.49.77,4.21,2.18,8.14,5.18,11.39a20.15,20.15,0,0,0,11.43,6.31c1.11.21,2.22.43,3.33.58.72.09.83.49.82,1.09C194.94,56.12,195,57.39,195,58.67Z"/><path class="cls-6" d="M195,7.28c0,4.71,0,4.52-4.73,5.47A19.16,19.16,0,0,0,175.6,24.94a15.11,15.11,0,0,0-1.49,5.5c0,1-.67,1.31-1.41,1.34-2.41.07-4.83,0-7.25,0-1,0-1.15-.55-1.16-1.45a17.88,17.88,0,0,1,1.06-6.06A31.46,31.46,0,0,1,168.58,17,32.17,32.17,0,0,1,178.87,6.86a32.63,32.63,0,0,1,13.89-4.52c1.76-.16,2.49.29,2.22,2.13A20.25,20.25,0,0,0,195,7.28Z"/><path class="cls-4" d="M202.53,63.56c-5,0-5,0-5-5,0-4.79,0-4.79,4.82-4.79,5.48,0,5.48,0,5.48,5.4,0,4.38,0,4.38-4.48,4.38Z"/><path class="cls-3" d="M79.67,19.14c0,4.89,0,4.89-4.91,4.89s-4.83,0-4.83-4.73c0-5.08,0-5.08,5.11-5.09,4.63,0,4.63,0,4.63,4.53Z"/><path class="cls-4" d="M94.45,2.28c4.62,0,4.62,0,4.62,4.67s0,4.74-4.69,4.74c-4.92,0-4.92,0-4.92-4.83,0-4.58,0-4.58,4.59-4.58Z"/><rect class="cls-6" x="221.58" y="1.97" width="23.5" height="8.43" rx="2.22"/><rect class="cls-5" x="221.16" y="55.15" width="23.5" height="8.43" rx="2.22"/><rect class="cls-3" x="219.07" y="34.2" width="27.88" height="9.73" rx="1.66" transform="translate(272.07 -193.95) rotate(90)"/><rect class="cls-5" x="50.65" y="2.34" width="36.39" height="9.34" rx="2.22"/><rect class="cls-6" x="56.18" y="40.18" width="37.09" height="9.6" rx="2.22" transform="translate(29.75 119.7) rotate(-90)"/><rect class="cls-5" x="4.54" y="30.25" width="16.27" height="5.13" rx="0.65" transform="translate(-14.71 10.73) rotate(-30)"/><rect class="cls-6" x="22.41" y="28.6" width="16.27" height="5.13" rx="1.12" transform="translate(-11.49 19.44) rotate(-30)"/><path class="cls-6" d="M122.39,2.22h9.37a.69.69,0,0,1,.63,1l-4.9,11.6a.38.38,0,0,1-.69,0l-5-11.59A.69.69,0,0,1,122.39,2.22Z"/><rect class="cls-5" x="121.57" y="41.74" width="11.35" height="11.35" rx="5.67"/><rect class="cls-3" x="197" y="1.34" width="11.35" height="11.35" rx="5.67"/><rect class="cls-4" x="227.34" y="11.56" width="11.35" height="11.35" rx="5.67"/></g></g></svg>