<svg xmlns="http://www.w3.org/2000/svg" viewBox="0 0 193.64 175.36"><defs><style>.cls-1,.cls-2{fill:#231f20;}.cls-1{stroke:#fff;stroke-miterlimit:10;stroke-width:0.5px;}.cls-3,.cls-4{fill:#fff;}.cls-4{opacity:0.63;}</style></defs><g id="Layer_17" data-name="Layer 17"><path class="cls-1" d="M171.93,127h-8.49l-2.8-2.07h0a6.35,6.35,0,0,0,1.73-4.36V38.29a6.41,6.41,0,0,0-6.42-6.42H47.22a6.41,6.41,0,0,0-6.42,6.42v82.28a6.39,6.39,0,0,0,1.44,4L39.51,127H30.85a1.21,1.21,0,0,0-1.22,1.21,14.14,14.14,0,0,0,14.13,14.14h116a13.43,13.43,0,0,0,13.43-13.44v-.7A1.21,1.21,0,0,0,171.93,127Z"/><rect class="cls-2" x="157.12" y="122.53" width="4.94" height="11.01" transform="translate(-38.93 177.54) rotate(-52.74)"/><rect class="cls-3" x="49.98" y="42.82" width="102.81" height="77.5"/><path class="cls-4" d="M33.79,130.88H169a0,0,0,0,1,0,0v3.45a2.46,2.46,0,0,1-2.46,2.46H36.25a2.46,2.46,0,0,1-2.46-2.46v-3.45a0,0,0,0,1,0,0Z"/></g></svg>